G04 (created by PCBNEW (22-Jun-2014 BZR 4027)-stable) date Mon 12 Jun 2017 10:58:34 PM CDT*
%MOIN*%
G04 Gerber Fmt 3.4, Leading zero omitted, Abs format*
%FSLAX34Y34*%
G01*
G70*
G90*
G04 APERTURE LIST*
%ADD10C,0.00590551*%
%ADD11C,0.006*%
%ADD12C,0.01*%
G04 APERTURE END LIST*
G54D10*
G54D11*
X75321Y-45357D02*
X75278Y-45371D01*
X75207Y-45371D01*
X75178Y-45357D01*
X75164Y-45342D01*
X75149Y-45314D01*
X75149Y-45285D01*
X75164Y-45257D01*
X75178Y-45242D01*
X75207Y-45228D01*
X75264Y-45214D01*
X75292Y-45200D01*
X75307Y-45185D01*
X75321Y-45157D01*
X75321Y-45128D01*
X75307Y-45100D01*
X75292Y-45085D01*
X75264Y-45071D01*
X75192Y-45071D01*
X75149Y-45085D01*
X75021Y-45371D02*
X75021Y-45171D01*
X75021Y-45071D02*
X75035Y-45085D01*
X75021Y-45100D01*
X75007Y-45085D01*
X75021Y-45071D01*
X75021Y-45100D01*
X74907Y-45071D02*
X74707Y-45071D01*
X74835Y-45371D01*
X74535Y-45071D02*
X74507Y-45071D01*
X74478Y-45085D01*
X74464Y-45100D01*
X74449Y-45128D01*
X74435Y-45185D01*
X74435Y-45257D01*
X74449Y-45314D01*
X74464Y-45342D01*
X74478Y-45357D01*
X74507Y-45371D01*
X74535Y-45371D01*
X74564Y-45357D01*
X74578Y-45342D01*
X74592Y-45314D01*
X74607Y-45257D01*
X74607Y-45185D01*
X74592Y-45128D01*
X74578Y-45100D01*
X74564Y-45085D01*
X74535Y-45071D01*
X74321Y-45100D02*
X74307Y-45085D01*
X74278Y-45071D01*
X74207Y-45071D01*
X74178Y-45085D01*
X74164Y-45100D01*
X74150Y-45128D01*
X74150Y-45157D01*
X74164Y-45200D01*
X74335Y-45371D01*
X74150Y-45371D01*
X73864Y-45371D02*
X74035Y-45371D01*
X73950Y-45371D02*
X73950Y-45071D01*
X73978Y-45114D01*
X74007Y-45142D01*
X74035Y-45157D01*
X73464Y-45371D02*
X73492Y-45357D01*
X73507Y-45342D01*
X73521Y-45314D01*
X73521Y-45228D01*
X73507Y-45200D01*
X73492Y-45185D01*
X73464Y-45171D01*
X73421Y-45171D01*
X73392Y-45185D01*
X73378Y-45200D01*
X73364Y-45228D01*
X73364Y-45314D01*
X73378Y-45342D01*
X73392Y-45357D01*
X73421Y-45371D01*
X73464Y-45371D01*
X73235Y-45371D02*
X73235Y-45171D01*
X73235Y-45228D02*
X73221Y-45200D01*
X73207Y-45185D01*
X73178Y-45171D01*
X73150Y-45171D01*
X72721Y-45214D02*
X72678Y-45228D01*
X72664Y-45242D01*
X72650Y-45271D01*
X72650Y-45314D01*
X72664Y-45342D01*
X72678Y-45357D01*
X72707Y-45371D01*
X72821Y-45371D01*
X72821Y-45071D01*
X72721Y-45071D01*
X72692Y-45085D01*
X72678Y-45100D01*
X72664Y-45128D01*
X72664Y-45157D01*
X72678Y-45185D01*
X72692Y-45200D01*
X72721Y-45214D01*
X72821Y-45214D01*
X72521Y-45371D02*
X72521Y-45071D01*
X72421Y-45285D01*
X72321Y-45071D01*
X72321Y-45371D01*
X72178Y-45214D02*
X72078Y-45214D01*
X72035Y-45371D02*
X72178Y-45371D01*
X72178Y-45071D01*
X72035Y-45071D01*
X71921Y-45100D02*
X71907Y-45085D01*
X71878Y-45071D01*
X71807Y-45071D01*
X71778Y-45085D01*
X71764Y-45100D01*
X71750Y-45128D01*
X71750Y-45157D01*
X71764Y-45200D01*
X71935Y-45371D01*
X71750Y-45371D01*
X71578Y-45200D02*
X71607Y-45185D01*
X71621Y-45171D01*
X71635Y-45142D01*
X71635Y-45128D01*
X71621Y-45100D01*
X71607Y-45085D01*
X71578Y-45071D01*
X71521Y-45071D01*
X71492Y-45085D01*
X71478Y-45100D01*
X71464Y-45128D01*
X71464Y-45142D01*
X71478Y-45171D01*
X71492Y-45185D01*
X71521Y-45200D01*
X71578Y-45200D01*
X71607Y-45214D01*
X71621Y-45228D01*
X71635Y-45257D01*
X71635Y-45314D01*
X71621Y-45342D01*
X71607Y-45357D01*
X71578Y-45371D01*
X71521Y-45371D01*
X71492Y-45357D01*
X71478Y-45342D01*
X71464Y-45314D01*
X71464Y-45257D01*
X71478Y-45228D01*
X71492Y-45214D01*
X71521Y-45200D01*
X71278Y-45071D02*
X71250Y-45071D01*
X71221Y-45085D01*
X71207Y-45100D01*
X71192Y-45128D01*
X71178Y-45185D01*
X71178Y-45257D01*
X71192Y-45314D01*
X71207Y-45342D01*
X71221Y-45357D01*
X71250Y-45371D01*
X71278Y-45371D01*
X71307Y-45357D01*
X71321Y-45342D01*
X71335Y-45314D01*
X71350Y-45257D01*
X71350Y-45185D01*
X71335Y-45128D01*
X71321Y-45100D01*
X71307Y-45085D01*
X71278Y-45071D01*
G54D12*
X65619Y-46547D02*
X66023Y-46547D01*
X66071Y-46523D01*
X66095Y-46499D01*
X66119Y-46452D01*
X66119Y-46380D01*
X66095Y-46333D01*
X65928Y-46547D02*
X65952Y-46499D01*
X65952Y-46404D01*
X65928Y-46357D01*
X65904Y-46333D01*
X65857Y-46309D01*
X65714Y-46309D01*
X65666Y-46333D01*
X65642Y-46357D01*
X65619Y-46404D01*
X65619Y-46499D01*
X65642Y-46547D01*
X65952Y-46785D02*
X65619Y-46785D01*
X65452Y-46785D02*
X65476Y-46761D01*
X65500Y-46785D01*
X65476Y-46809D01*
X65452Y-46785D01*
X65500Y-46785D01*
X65619Y-46952D02*
X65619Y-47142D01*
X65452Y-47023D02*
X65880Y-47023D01*
X65928Y-47047D01*
X65952Y-47095D01*
X65952Y-47142D01*
X65952Y-47309D02*
X65452Y-47309D01*
X65952Y-47523D02*
X65690Y-47523D01*
X65642Y-47499D01*
X65619Y-47452D01*
X65619Y-47380D01*
X65642Y-47333D01*
X65666Y-47309D01*
X65619Y-47976D02*
X65952Y-47976D01*
X65619Y-47761D02*
X65880Y-47761D01*
X65928Y-47785D01*
X65952Y-47833D01*
X65952Y-47904D01*
X65928Y-47952D01*
X65904Y-47976D01*
X65952Y-48214D02*
X65452Y-48214D01*
X65642Y-48214D02*
X65619Y-48261D01*
X65619Y-48357D01*
X65642Y-48404D01*
X65666Y-48428D01*
X65714Y-48452D01*
X65857Y-48452D01*
X65904Y-48428D01*
X65928Y-48404D01*
X65952Y-48357D01*
X65952Y-48261D01*
X65928Y-48214D01*
X65904Y-48666D02*
X65928Y-48690D01*
X65952Y-48666D01*
X65928Y-48642D01*
X65904Y-48666D01*
X65952Y-48666D01*
X65928Y-49119D02*
X65952Y-49071D01*
X65952Y-48976D01*
X65928Y-48928D01*
X65904Y-48904D01*
X65857Y-48880D01*
X65714Y-48880D01*
X65666Y-48904D01*
X65642Y-48928D01*
X65619Y-48976D01*
X65619Y-49071D01*
X65642Y-49119D01*
X65952Y-49404D02*
X65928Y-49357D01*
X65904Y-49333D01*
X65857Y-49309D01*
X65714Y-49309D01*
X65666Y-49333D01*
X65642Y-49357D01*
X65619Y-49404D01*
X65619Y-49476D01*
X65642Y-49523D01*
X65666Y-49547D01*
X65714Y-49571D01*
X65857Y-49571D01*
X65904Y-49547D01*
X65928Y-49523D01*
X65952Y-49476D01*
X65952Y-49404D01*
X65952Y-49785D02*
X65619Y-49785D01*
X65666Y-49785D02*
X65642Y-49809D01*
X65619Y-49857D01*
X65619Y-49928D01*
X65642Y-49976D01*
X65690Y-50000D01*
X65952Y-50000D01*
X65690Y-50000D02*
X65642Y-50023D01*
X65619Y-50071D01*
X65619Y-50142D01*
X65642Y-50190D01*
X65690Y-50214D01*
X65952Y-50214D01*
X65428Y-50809D02*
X66071Y-50380D01*
X65619Y-50976D02*
X66119Y-50976D01*
X65642Y-50976D02*
X65619Y-51023D01*
X65619Y-51119D01*
X65642Y-51166D01*
X65666Y-51190D01*
X65714Y-51214D01*
X65857Y-51214D01*
X65904Y-51190D01*
X65928Y-51166D01*
X65952Y-51119D01*
X65952Y-51023D01*
X65928Y-50976D01*
X65928Y-51619D02*
X65952Y-51571D01*
X65952Y-51476D01*
X65928Y-51428D01*
X65880Y-51404D01*
X65690Y-51404D01*
X65642Y-51428D01*
X65619Y-51476D01*
X65619Y-51571D01*
X65642Y-51619D01*
X65690Y-51642D01*
X65738Y-51642D01*
X65785Y-51404D01*
X65619Y-51857D02*
X66119Y-51857D01*
X65642Y-51857D02*
X65619Y-51904D01*
X65619Y-52000D01*
X65642Y-52047D01*
X65666Y-52071D01*
X65714Y-52095D01*
X65857Y-52095D01*
X65904Y-52071D01*
X65928Y-52047D01*
X65952Y-52000D01*
X65952Y-51904D01*
X65928Y-51857D01*
X65952Y-52523D02*
X65690Y-52523D01*
X65642Y-52500D01*
X65619Y-52452D01*
X65619Y-52357D01*
X65642Y-52309D01*
X65928Y-52523D02*
X65952Y-52476D01*
X65952Y-52357D01*
X65928Y-52309D01*
X65880Y-52285D01*
X65833Y-52285D01*
X65785Y-52309D01*
X65761Y-52357D01*
X65761Y-52476D01*
X65738Y-52523D01*
X65928Y-52738D02*
X65952Y-52785D01*
X65952Y-52880D01*
X65928Y-52928D01*
X65880Y-52952D01*
X65857Y-52952D01*
X65809Y-52928D01*
X65785Y-52880D01*
X65785Y-52809D01*
X65761Y-52761D01*
X65714Y-52738D01*
X65690Y-52738D01*
X65642Y-52761D01*
X65619Y-52809D01*
X65619Y-52880D01*
X65642Y-52928D01*
X65952Y-53238D02*
X65928Y-53190D01*
X65880Y-53166D01*
X65452Y-53166D01*
X65952Y-53642D02*
X65690Y-53642D01*
X65642Y-53619D01*
X65619Y-53571D01*
X65619Y-53476D01*
X65642Y-53428D01*
X65928Y-53642D02*
X65952Y-53595D01*
X65952Y-53476D01*
X65928Y-53428D01*
X65880Y-53404D01*
X65833Y-53404D01*
X65785Y-53428D01*
X65761Y-53476D01*
X65761Y-53595D01*
X65738Y-53642D01*
X65952Y-53880D02*
X65452Y-53880D01*
X65642Y-53880D02*
X65619Y-53928D01*
X65619Y-54023D01*
X65642Y-54071D01*
X65666Y-54095D01*
X65714Y-54119D01*
X65857Y-54119D01*
X65904Y-54095D01*
X65928Y-54071D01*
X65952Y-54023D01*
X65952Y-53928D01*
X65928Y-53880D01*
X65928Y-54309D02*
X65952Y-54357D01*
X65952Y-54452D01*
X65928Y-54500D01*
X65880Y-54523D01*
X65857Y-54523D01*
X65809Y-54500D01*
X65785Y-54452D01*
X65785Y-54380D01*
X65761Y-54333D01*
X65714Y-54309D01*
X65690Y-54309D01*
X65642Y-54333D01*
X65619Y-54380D01*
X65619Y-54452D01*
X65642Y-54500D01*
X65428Y-55095D02*
X66071Y-54666D01*
X65952Y-55333D02*
X65928Y-55285D01*
X65880Y-55261D01*
X65452Y-55261D01*
X65952Y-55738D02*
X65690Y-55738D01*
X65642Y-55714D01*
X65619Y-55666D01*
X65619Y-55571D01*
X65642Y-55523D01*
X65928Y-55738D02*
X65952Y-55690D01*
X65952Y-55571D01*
X65928Y-55523D01*
X65880Y-55500D01*
X65833Y-55500D01*
X65785Y-55523D01*
X65761Y-55571D01*
X65761Y-55690D01*
X65738Y-55738D01*
X65952Y-55976D02*
X65452Y-55976D01*
X65642Y-55976D02*
X65619Y-56023D01*
X65619Y-56119D01*
X65642Y-56166D01*
X65666Y-56190D01*
X65714Y-56214D01*
X65857Y-56214D01*
X65904Y-56190D01*
X65928Y-56166D01*
X65952Y-56119D01*
X65952Y-56023D01*
X65928Y-55976D01*
X65761Y-56428D02*
X65761Y-56809D01*
X65952Y-57119D02*
X65928Y-57071D01*
X65880Y-57047D01*
X65452Y-57047D01*
X65952Y-57380D02*
X65928Y-57333D01*
X65904Y-57309D01*
X65857Y-57285D01*
X65714Y-57285D01*
X65666Y-57309D01*
X65642Y-57333D01*
X65619Y-57380D01*
X65619Y-57452D01*
X65642Y-57500D01*
X65666Y-57523D01*
X65714Y-57547D01*
X65857Y-57547D01*
X65904Y-57523D01*
X65928Y-57500D01*
X65952Y-57452D01*
X65952Y-57380D01*
X65619Y-57976D02*
X66023Y-57976D01*
X66071Y-57952D01*
X66095Y-57928D01*
X66119Y-57880D01*
X66119Y-57809D01*
X66095Y-57761D01*
X65928Y-57976D02*
X65952Y-57928D01*
X65952Y-57833D01*
X65928Y-57785D01*
X65904Y-57761D01*
X65857Y-57738D01*
X65714Y-57738D01*
X65666Y-57761D01*
X65642Y-57785D01*
X65619Y-57833D01*
X65619Y-57928D01*
X65642Y-57976D01*
X65619Y-58428D02*
X66023Y-58428D01*
X66071Y-58404D01*
X66095Y-58380D01*
X66119Y-58333D01*
X66119Y-58261D01*
X66095Y-58214D01*
X65928Y-58428D02*
X65952Y-58380D01*
X65952Y-58285D01*
X65928Y-58238D01*
X65904Y-58214D01*
X65857Y-58190D01*
X65714Y-58190D01*
X65666Y-58214D01*
X65642Y-58238D01*
X65619Y-58285D01*
X65619Y-58380D01*
X65642Y-58428D01*
X65928Y-58857D02*
X65952Y-58809D01*
X65952Y-58714D01*
X65928Y-58666D01*
X65880Y-58642D01*
X65690Y-58642D01*
X65642Y-58666D01*
X65619Y-58714D01*
X65619Y-58809D01*
X65642Y-58857D01*
X65690Y-58880D01*
X65738Y-58880D01*
X65785Y-58642D01*
X65952Y-59095D02*
X65619Y-59095D01*
X65714Y-59095D02*
X65666Y-59119D01*
X65642Y-59142D01*
X65619Y-59190D01*
X65619Y-59238D01*
M02*
