M48
;DRILL file {Pcbnew (22-Jun-2014 BZR 4027)-stable} date Mon 12 Jun 2017 10:59:00 PM CDT
;FORMAT={-:-/ absolute / inch / decimal}
FMAT,2
INCH,TZ
T1C0.025
T2C0.032
T3C0.040
T4C0.091
T5C0.126
%
G90
G05
M72
T1
X7.275Y-5.
X7.375Y-5.2
T2
X6.45Y-4.65
X6.45Y-4.775
X6.45Y-4.875
X6.45Y-5.275
X6.85Y-5.55
X6.85Y-5.95
X6.85Y-6.05
X6.85Y-6.175
X6.95Y-5.55
X6.95Y-5.95
X6.95Y-6.05
X6.95Y-6.175
X7.025Y-4.425
X7.025Y-4.55
X7.075Y-4.8
X7.075Y-4.925
X7.15Y-5.45
X7.175Y-4.625
X7.175Y-4.725
X7.175Y-4.825
X7.175Y-4.925
X7.275Y-5.45
X7.275Y-5.665
X7.275Y-5.7437
X7.375Y-5.45
X7.375Y-5.665
X7.375Y-5.7437
X7.475Y-4.625
X7.475Y-4.725
X7.475Y-4.825
X7.475Y-4.925
X7.5Y-5.45
X7.6Y-4.925
X7.6Y-5.025
X7.725Y-5.025
X7.7375Y-5.575
X7.7375Y-6.15
X7.75Y-5.775
X7.85Y-5.775
X7.8625Y-5.575
X7.8625Y-6.15
X8.Y-4.925
X8.2Y-4.875
X8.2Y-5.275
T3
X6.672Y-5.0364
X6.672Y-5.2136
X6.928Y-5.0364
X6.928Y-5.2136
X7.175Y-4.425
X7.275Y-4.425
X7.375Y-4.425
X7.475Y-4.425
X7.65Y-5.975
X7.672Y-4.3864
X7.672Y-4.5636
X7.928Y-4.3864
X7.928Y-4.5636
X7.95Y-5.975
X8.2Y-4.65
X8.2Y-4.75
T4
X7.0888Y-5.85
X7.5612Y-5.85
T5
X6.45Y-4.4
X6.45Y-6.15
X8.2Y-4.4
X8.2Y-6.15
T0
M30
