G04 (created by PCBNEW (22-Jun-2014 BZR 4027)-stable) date Mon 12 Jun 2017 10:58:34 PM CDT*
%MOIN*%
G04 Gerber Fmt 3.4, Leading zero omitted, Abs format*
%FSLAX34Y34*%
G01*
G70*
G90*
G04 APERTURE LIST*
%ADD10C,0.00590551*%
%ADD11C,0.006*%
%ADD12C,0.012*%
%ADD13C,0.01*%
%ADD14C,0.005*%
%ADD15C,0.0001*%
%ADD16C,0.008*%
%ADD17C,0.0039*%
%ADD18C,0.016*%
G04 APERTURE END LIST*
G54D10*
G54D11*
X80700Y-54485D02*
X80685Y-54471D01*
X80657Y-54428D01*
X80642Y-54400D01*
X80628Y-54357D01*
X80614Y-54285D01*
X80614Y-54228D01*
X80628Y-54157D01*
X80642Y-54114D01*
X80657Y-54085D01*
X80685Y-54042D01*
X80700Y-54028D01*
X80785Y-54171D02*
X80857Y-54371D01*
X80928Y-54171D01*
X81200Y-54371D02*
X81028Y-54371D01*
X81114Y-54371D02*
X81114Y-54071D01*
X81085Y-54114D01*
X81057Y-54142D01*
X81028Y-54157D01*
X81300Y-54485D02*
X81314Y-54471D01*
X81342Y-54428D01*
X81357Y-54400D01*
X81371Y-54357D01*
X81385Y-54285D01*
X81385Y-54228D01*
X81371Y-54157D01*
X81357Y-54114D01*
X81342Y-54085D01*
X81314Y-54042D01*
X81300Y-54028D01*
G54D12*
X78428Y-52742D02*
X78142Y-52742D01*
X78142Y-52142D01*
X78885Y-52742D02*
X78885Y-52428D01*
X78857Y-52371D01*
X78800Y-52342D01*
X78685Y-52342D01*
X78628Y-52371D01*
X78885Y-52714D02*
X78828Y-52742D01*
X78685Y-52742D01*
X78628Y-52714D01*
X78600Y-52657D01*
X78600Y-52600D01*
X78628Y-52542D01*
X78685Y-52514D01*
X78828Y-52514D01*
X78885Y-52485D01*
X79171Y-52742D02*
X79171Y-52142D01*
X79171Y-52371D02*
X79228Y-52342D01*
X79342Y-52342D01*
X79400Y-52371D01*
X79428Y-52400D01*
X79457Y-52457D01*
X79457Y-52628D01*
X79428Y-52685D01*
X79400Y-52714D01*
X79342Y-52742D01*
X79228Y-52742D01*
X79171Y-52714D01*
X78428Y-53702D02*
X78142Y-53702D01*
X78142Y-53102D01*
X78714Y-53702D02*
X78657Y-53674D01*
X78628Y-53645D01*
X78600Y-53588D01*
X78600Y-53417D01*
X78628Y-53360D01*
X78657Y-53331D01*
X78714Y-53302D01*
X78800Y-53302D01*
X78857Y-53331D01*
X78885Y-53360D01*
X78914Y-53417D01*
X78914Y-53588D01*
X78885Y-53645D01*
X78857Y-53674D01*
X78800Y-53702D01*
X78714Y-53702D01*
X79428Y-53302D02*
X79428Y-53788D01*
X79400Y-53845D01*
X79371Y-53874D01*
X79314Y-53902D01*
X79228Y-53902D01*
X79171Y-53874D01*
X79428Y-53674D02*
X79371Y-53702D01*
X79257Y-53702D01*
X79200Y-53674D01*
X79171Y-53645D01*
X79142Y-53588D01*
X79142Y-53417D01*
X79171Y-53360D01*
X79200Y-53331D01*
X79257Y-53302D01*
X79371Y-53302D01*
X79428Y-53331D01*
X79971Y-53302D02*
X79971Y-53788D01*
X79942Y-53845D01*
X79914Y-53874D01*
X79857Y-53902D01*
X79771Y-53902D01*
X79714Y-53874D01*
X79971Y-53674D02*
X79914Y-53702D01*
X79799Y-53702D01*
X79742Y-53674D01*
X79714Y-53645D01*
X79685Y-53588D01*
X79685Y-53417D01*
X79714Y-53360D01*
X79742Y-53331D01*
X79799Y-53302D01*
X79914Y-53302D01*
X79971Y-53331D01*
X80485Y-53674D02*
X80428Y-53702D01*
X80314Y-53702D01*
X80257Y-53674D01*
X80228Y-53617D01*
X80228Y-53388D01*
X80257Y-53331D01*
X80314Y-53302D01*
X80428Y-53302D01*
X80485Y-53331D01*
X80514Y-53388D01*
X80514Y-53445D01*
X80228Y-53502D01*
X80771Y-53702D02*
X80771Y-53302D01*
X80771Y-53417D02*
X80800Y-53360D01*
X80828Y-53331D01*
X80885Y-53302D01*
X80942Y-53302D01*
G54D11*
X74485Y-45357D02*
X74528Y-45371D01*
X74600Y-45371D01*
X74628Y-45357D01*
X74642Y-45342D01*
X74657Y-45314D01*
X74657Y-45285D01*
X74642Y-45257D01*
X74628Y-45242D01*
X74600Y-45228D01*
X74542Y-45214D01*
X74514Y-45200D01*
X74500Y-45185D01*
X74485Y-45157D01*
X74485Y-45128D01*
X74500Y-45100D01*
X74514Y-45085D01*
X74542Y-45071D01*
X74614Y-45071D01*
X74657Y-45085D01*
X74785Y-45371D02*
X74785Y-45071D01*
X74857Y-45071D01*
X74900Y-45085D01*
X74928Y-45114D01*
X74942Y-45142D01*
X74957Y-45200D01*
X74957Y-45242D01*
X74942Y-45300D01*
X74928Y-45328D01*
X74900Y-45357D01*
X74857Y-45371D01*
X74785Y-45371D01*
X75071Y-45285D02*
X75214Y-45285D01*
X75042Y-45371D02*
X75142Y-45071D01*
X75242Y-45371D01*
X73442Y-45357D02*
X73485Y-45371D01*
X73557Y-45371D01*
X73585Y-45357D01*
X73600Y-45342D01*
X73614Y-45314D01*
X73614Y-45285D01*
X73600Y-45257D01*
X73585Y-45242D01*
X73557Y-45228D01*
X73500Y-45214D01*
X73471Y-45200D01*
X73457Y-45185D01*
X73442Y-45157D01*
X73442Y-45128D01*
X73457Y-45100D01*
X73471Y-45085D01*
X73500Y-45071D01*
X73571Y-45071D01*
X73614Y-45085D01*
X73914Y-45342D02*
X73900Y-45357D01*
X73857Y-45371D01*
X73828Y-45371D01*
X73785Y-45357D01*
X73757Y-45328D01*
X73742Y-45300D01*
X73728Y-45242D01*
X73728Y-45200D01*
X73742Y-45142D01*
X73757Y-45114D01*
X73785Y-45085D01*
X73828Y-45071D01*
X73857Y-45071D01*
X73900Y-45085D01*
X73914Y-45100D01*
X74185Y-45371D02*
X74042Y-45371D01*
X74042Y-45071D01*
X72471Y-45085D02*
X72442Y-45071D01*
X72400Y-45071D01*
X72357Y-45085D01*
X72328Y-45114D01*
X72314Y-45142D01*
X72300Y-45200D01*
X72300Y-45242D01*
X72314Y-45300D01*
X72328Y-45328D01*
X72357Y-45357D01*
X72400Y-45371D01*
X72428Y-45371D01*
X72471Y-45357D01*
X72485Y-45342D01*
X72485Y-45242D01*
X72428Y-45242D01*
X72614Y-45371D02*
X72614Y-45071D01*
X72785Y-45371D01*
X72785Y-45071D01*
X72928Y-45371D02*
X72928Y-45071D01*
X73000Y-45071D01*
X73042Y-45085D01*
X73071Y-45114D01*
X73085Y-45142D01*
X73100Y-45200D01*
X73100Y-45242D01*
X73085Y-45300D01*
X73071Y-45328D01*
X73042Y-45357D01*
X73000Y-45371D01*
X72928Y-45371D01*
X71278Y-45071D02*
X71464Y-45071D01*
X71364Y-45185D01*
X71407Y-45185D01*
X71435Y-45200D01*
X71450Y-45214D01*
X71464Y-45242D01*
X71464Y-45314D01*
X71450Y-45342D01*
X71435Y-45357D01*
X71407Y-45371D01*
X71321Y-45371D01*
X71292Y-45357D01*
X71278Y-45342D01*
X71550Y-45071D02*
X71650Y-45371D01*
X71750Y-45071D01*
X71821Y-45071D02*
X72007Y-45071D01*
X71907Y-45185D01*
X71950Y-45185D01*
X71978Y-45200D01*
X71992Y-45214D01*
X72007Y-45242D01*
X72007Y-45314D01*
X71992Y-45342D01*
X71978Y-45357D01*
X71950Y-45371D01*
X71864Y-45371D01*
X71835Y-45357D01*
X71821Y-45342D01*
G54D13*
X83750Y-44000D02*
G75*
G03X83750Y-44000I-1750J0D01*
G74*
G01*
X66250Y-44000D02*
G75*
G03X66250Y-44000I-1750J0D01*
G74*
G01*
X83750Y-61500D02*
G75*
G03X83750Y-61500I-1750J0D01*
G74*
G01*
X66250Y-61500D02*
G75*
G03X66250Y-61500I-1750J0D01*
G74*
G01*
X70850Y-62550D02*
X75650Y-62550D01*
X75650Y-62550D02*
X75650Y-55850D01*
X75650Y-55850D02*
X70850Y-55850D01*
X70850Y-55850D02*
X70850Y-62550D01*
G54D14*
X74225Y-51225D02*
X72275Y-51225D01*
X72275Y-51225D02*
X72275Y-52775D01*
X72275Y-52775D02*
X74225Y-52775D01*
X74225Y-52775D02*
X74225Y-51225D01*
X74086Y-51475D02*
G75*
G03X74086Y-51475I-111J0D01*
G74*
G01*
G54D13*
X72250Y-43750D02*
X72250Y-44750D01*
X71250Y-43750D02*
X75250Y-43750D01*
X75250Y-43750D02*
X75250Y-44750D01*
X75250Y-44750D02*
X71250Y-44750D01*
X71250Y-44750D02*
X71250Y-43750D01*
X76000Y-49250D02*
X76400Y-49250D01*
X76400Y-49250D02*
X76400Y-48850D01*
X76400Y-48850D02*
X79600Y-48850D01*
X79600Y-48850D02*
X79600Y-49650D01*
X79600Y-49650D02*
X76400Y-49650D01*
X76400Y-49650D02*
X76400Y-49250D01*
X80000Y-49250D02*
X79600Y-49250D01*
X64500Y-48750D02*
X64500Y-49150D01*
X64500Y-49150D02*
X64900Y-49150D01*
X64900Y-49150D02*
X64900Y-52350D01*
X64900Y-52350D02*
X64100Y-52350D01*
X64100Y-52350D02*
X64100Y-49150D01*
X64100Y-49150D02*
X64500Y-49150D01*
X64500Y-52750D02*
X64500Y-52350D01*
X82000Y-48750D02*
X82000Y-49150D01*
X82000Y-49150D02*
X82400Y-49150D01*
X82400Y-49150D02*
X82400Y-52350D01*
X82400Y-52350D02*
X81600Y-52350D01*
X81600Y-52350D02*
X81600Y-49150D01*
X81600Y-49150D02*
X82000Y-49150D01*
X82000Y-52750D02*
X82000Y-52350D01*
X69500Y-59500D02*
X69500Y-59100D01*
X69500Y-59100D02*
X69100Y-59100D01*
X69100Y-59100D02*
X69100Y-55900D01*
X69100Y-55900D02*
X69900Y-55900D01*
X69900Y-55900D02*
X69900Y-59100D01*
X69900Y-59100D02*
X69500Y-59100D01*
X69500Y-55500D02*
X69500Y-55900D01*
X68500Y-59500D02*
X68500Y-59100D01*
X68500Y-59100D02*
X68100Y-59100D01*
X68100Y-59100D02*
X68100Y-55900D01*
X68100Y-55900D02*
X68900Y-55900D01*
X68900Y-55900D02*
X68900Y-59100D01*
X68900Y-59100D02*
X68500Y-59100D01*
X68500Y-55500D02*
X68500Y-55900D01*
X81448Y-46448D02*
X82551Y-46448D01*
X82551Y-47551D02*
G75*
G03X82551Y-46448I-551J551D01*
G74*
G01*
X81448Y-47551D02*
G75*
G03X82551Y-47551I551J551D01*
G74*
G01*
X81448Y-46448D02*
G75*
G03X81448Y-47551I551J-551D01*
G74*
G01*
X77250Y-60500D02*
X78750Y-60500D01*
X77250Y-59000D02*
X78750Y-59000D01*
X77250Y-59750D02*
X77250Y-59000D01*
X78750Y-59000D02*
X78750Y-60500D01*
X77250Y-60500D02*
X77250Y-59750D01*
X79500Y-59750D02*
X78750Y-59750D01*
X76500Y-59750D02*
X77250Y-59750D01*
X79000Y-57750D02*
G75*
G03X79000Y-57750I-1000J0D01*
G74*
G01*
X73250Y-49450D02*
G75*
G03X72950Y-49750I0J-300D01*
G74*
G01*
X73550Y-49750D02*
G75*
G03X73250Y-49450I-300J0D01*
G74*
G01*
X72250Y-49750D02*
X72250Y-45750D01*
X72250Y-45750D02*
X74250Y-45750D01*
X74250Y-45750D02*
X74250Y-49750D01*
X74250Y-49750D02*
X72250Y-49750D01*
X69100Y-60100D02*
X69100Y-62150D01*
X69900Y-60100D02*
X69900Y-62150D01*
X69900Y-62150D02*
X69100Y-62150D01*
X69100Y-60100D02*
X69900Y-60100D01*
X68100Y-60100D02*
X68100Y-62150D01*
X68900Y-60100D02*
X68900Y-62150D01*
X68900Y-62150D02*
X68100Y-62150D01*
X68100Y-60100D02*
X68900Y-60100D01*
X73150Y-54100D02*
X71100Y-54100D01*
X73150Y-54900D02*
X71100Y-54900D01*
X71100Y-54900D02*
X71100Y-54100D01*
X73150Y-54100D02*
X73150Y-54900D01*
X64900Y-48150D02*
X64900Y-46100D01*
X64100Y-48150D02*
X64100Y-46100D01*
X64100Y-46100D02*
X64900Y-46100D01*
X64900Y-48150D02*
X64100Y-48150D01*
X75600Y-50650D02*
X77650Y-50650D01*
X75600Y-49850D02*
X77650Y-49850D01*
X77650Y-49850D02*
X77650Y-50650D01*
X75600Y-50650D02*
X75600Y-49850D01*
X79025Y-55350D02*
X76975Y-55350D01*
X79025Y-56150D02*
X76975Y-56150D01*
X76975Y-56150D02*
X76975Y-55350D01*
X79025Y-55350D02*
X79025Y-56150D01*
X76975Y-61900D02*
X79025Y-61900D01*
X76975Y-61100D02*
X79025Y-61100D01*
X79025Y-61100D02*
X79025Y-61900D01*
X76975Y-61900D02*
X76975Y-61100D01*
X68885Y-50462D02*
G75*
G03X68885Y-50462I-98J0D01*
G74*
G01*
X67311Y-50462D02*
G75*
G03X67311Y-50462I-98J0D01*
G74*
G01*
X67311Y-52037D02*
G75*
G03X67311Y-52037I-98J0D01*
G74*
G01*
X68885Y-52037D02*
G75*
G03X68885Y-52037I-98J0D01*
G74*
G01*
X68688Y-51250D02*
G75*
G03X68688Y-51250I-688J0D01*
G74*
G01*
X69181Y-52431D02*
X66818Y-52431D01*
X66818Y-52431D02*
X66818Y-50068D01*
X66818Y-50068D02*
X69181Y-50068D01*
X69181Y-50068D02*
X69181Y-52431D01*
X78885Y-43962D02*
G75*
G03X78885Y-43962I-98J0D01*
G74*
G01*
X77311Y-43962D02*
G75*
G03X77311Y-43962I-98J0D01*
G74*
G01*
X77311Y-45537D02*
G75*
G03X77311Y-45537I-98J0D01*
G74*
G01*
X78885Y-45537D02*
G75*
G03X78885Y-45537I-98J0D01*
G74*
G01*
X78688Y-44750D02*
G75*
G03X78688Y-44750I-688J0D01*
G74*
G01*
X79181Y-45931D02*
X76818Y-45931D01*
X76818Y-45931D02*
X76818Y-43568D01*
X76818Y-43568D02*
X79181Y-43568D01*
X79181Y-43568D02*
X79181Y-45931D01*
X73350Y-54900D02*
X75400Y-54900D01*
X73350Y-54100D02*
X75400Y-54100D01*
X75400Y-54100D02*
X75400Y-54900D01*
X73350Y-54900D02*
X73350Y-54100D01*
X71150Y-49650D02*
X71150Y-47600D01*
X70350Y-49650D02*
X70350Y-47600D01*
X70350Y-47600D02*
X71150Y-47600D01*
X71150Y-49650D02*
X70350Y-49650D01*
X69850Y-43850D02*
X69850Y-45900D01*
X70650Y-43850D02*
X70650Y-45900D01*
X70650Y-45900D02*
X69850Y-45900D01*
X69850Y-43850D02*
X70650Y-43850D01*
G54D15*
G36*
X76273Y-53707D02*
X76281Y-53703D01*
X76300Y-53691D01*
X76326Y-53674D01*
X76357Y-53653D01*
X76388Y-53632D01*
X76414Y-53615D01*
X76432Y-53603D01*
X76439Y-53599D01*
X76443Y-53600D01*
X76458Y-53608D01*
X76480Y-53619D01*
X76492Y-53625D01*
X76512Y-53634D01*
X76522Y-53636D01*
X76523Y-53633D01*
X76531Y-53618D01*
X76542Y-53592D01*
X76557Y-53558D01*
X76574Y-53518D01*
X76592Y-53475D01*
X76610Y-53431D01*
X76628Y-53389D01*
X76643Y-53351D01*
X76656Y-53321D01*
X76664Y-53299D01*
X76667Y-53290D01*
X76666Y-53288D01*
X76656Y-53279D01*
X76639Y-53266D01*
X76601Y-53235D01*
X76565Y-53189D01*
X76542Y-53137D01*
X76535Y-53079D01*
X76541Y-53026D01*
X76562Y-52975D01*
X76598Y-52928D01*
X76642Y-52894D01*
X76693Y-52872D01*
X76750Y-52865D01*
X76805Y-52871D01*
X76857Y-52892D01*
X76904Y-52927D01*
X76923Y-52950D01*
X76950Y-52997D01*
X76966Y-53047D01*
X76967Y-53059D01*
X76965Y-53115D01*
X76949Y-53168D01*
X76920Y-53215D01*
X76879Y-53254D01*
X76874Y-53258D01*
X76855Y-53272D01*
X76843Y-53281D01*
X76833Y-53289D01*
X76903Y-53459D01*
X76914Y-53486D01*
X76934Y-53532D01*
X76951Y-53572D01*
X76964Y-53604D01*
X76974Y-53625D01*
X76978Y-53634D01*
X76978Y-53634D01*
X76984Y-53635D01*
X76997Y-53630D01*
X77021Y-53619D01*
X77037Y-53611D01*
X77055Y-53602D01*
X77063Y-53599D01*
X77070Y-53603D01*
X77087Y-53614D01*
X77112Y-53631D01*
X77142Y-53651D01*
X77171Y-53671D01*
X77198Y-53689D01*
X77217Y-53701D01*
X77227Y-53706D01*
X77228Y-53706D01*
X77236Y-53701D01*
X77252Y-53689D01*
X77275Y-53667D01*
X77307Y-53635D01*
X77312Y-53630D01*
X77339Y-53602D01*
X77361Y-53579D01*
X77376Y-53563D01*
X77381Y-53556D01*
X77381Y-53556D01*
X77376Y-53546D01*
X77364Y-53527D01*
X77346Y-53500D01*
X77325Y-53469D01*
X77269Y-53387D01*
X77300Y-53310D01*
X77309Y-53287D01*
X77321Y-53258D01*
X77330Y-53238D01*
X77335Y-53229D01*
X77343Y-53226D01*
X77364Y-53221D01*
X77395Y-53214D01*
X77431Y-53208D01*
X77466Y-53201D01*
X77497Y-53195D01*
X77520Y-53191D01*
X77530Y-53189D01*
X77532Y-53187D01*
X77534Y-53182D01*
X77536Y-53172D01*
X77536Y-53153D01*
X77537Y-53123D01*
X77537Y-53079D01*
X77537Y-53075D01*
X77536Y-53033D01*
X77536Y-53000D01*
X77535Y-52979D01*
X77533Y-52971D01*
X77533Y-52971D01*
X77523Y-52968D01*
X77501Y-52964D01*
X77470Y-52957D01*
X77432Y-52950D01*
X77430Y-52950D01*
X77393Y-52943D01*
X77362Y-52936D01*
X77340Y-52931D01*
X77331Y-52928D01*
X77329Y-52926D01*
X77321Y-52911D01*
X77310Y-52888D01*
X77298Y-52860D01*
X77286Y-52831D01*
X77275Y-52804D01*
X77268Y-52785D01*
X77266Y-52776D01*
X77266Y-52776D01*
X77272Y-52767D01*
X77285Y-52747D01*
X77303Y-52721D01*
X77325Y-52689D01*
X77326Y-52686D01*
X77348Y-52655D01*
X77365Y-52628D01*
X77377Y-52609D01*
X77381Y-52601D01*
X77381Y-52600D01*
X77374Y-52591D01*
X77358Y-52573D01*
X77335Y-52549D01*
X77307Y-52521D01*
X77298Y-52513D01*
X77268Y-52483D01*
X77247Y-52463D01*
X77233Y-52453D01*
X77227Y-52450D01*
X77227Y-52451D01*
X77217Y-52456D01*
X77197Y-52469D01*
X77170Y-52488D01*
X77138Y-52509D01*
X77136Y-52511D01*
X77105Y-52532D01*
X77079Y-52550D01*
X77060Y-52562D01*
X77052Y-52567D01*
X77050Y-52567D01*
X77038Y-52563D01*
X77015Y-52556D01*
X76988Y-52545D01*
X76959Y-52533D01*
X76932Y-52522D01*
X76912Y-52513D01*
X76903Y-52508D01*
X76903Y-52507D01*
X76899Y-52496D01*
X76894Y-52472D01*
X76887Y-52440D01*
X76880Y-52401D01*
X76879Y-52395D01*
X76872Y-52358D01*
X76866Y-52327D01*
X76861Y-52305D01*
X76859Y-52296D01*
X76854Y-52295D01*
X76835Y-52294D01*
X76807Y-52293D01*
X76773Y-52293D01*
X76738Y-52293D01*
X76704Y-52294D01*
X76674Y-52295D01*
X76653Y-52296D01*
X76644Y-52298D01*
X76643Y-52299D01*
X76640Y-52310D01*
X76635Y-52334D01*
X76628Y-52366D01*
X76621Y-52405D01*
X76620Y-52412D01*
X76613Y-52449D01*
X76606Y-52480D01*
X76602Y-52501D01*
X76599Y-52509D01*
X76596Y-52511D01*
X76581Y-52518D01*
X76556Y-52528D01*
X76524Y-52541D01*
X76452Y-52570D01*
X76364Y-52509D01*
X76356Y-52504D01*
X76324Y-52482D01*
X76298Y-52465D01*
X76280Y-52453D01*
X76272Y-52449D01*
X76272Y-52449D01*
X76263Y-52457D01*
X76245Y-52473D01*
X76221Y-52497D01*
X76194Y-52524D01*
X76173Y-52545D01*
X76149Y-52570D01*
X76133Y-52586D01*
X76125Y-52597D01*
X76122Y-52604D01*
X76123Y-52608D01*
X76128Y-52617D01*
X76141Y-52636D01*
X76159Y-52663D01*
X76181Y-52694D01*
X76199Y-52721D01*
X76218Y-52750D01*
X76230Y-52771D01*
X76235Y-52782D01*
X76234Y-52786D01*
X76227Y-52803D01*
X76217Y-52830D01*
X76204Y-52861D01*
X76173Y-52931D01*
X76127Y-52939D01*
X76099Y-52945D01*
X76060Y-52952D01*
X76023Y-52959D01*
X75965Y-52971D01*
X75963Y-53183D01*
X75972Y-53187D01*
X75981Y-53190D01*
X76002Y-53194D01*
X76033Y-53200D01*
X76069Y-53207D01*
X76100Y-53213D01*
X76131Y-53219D01*
X76153Y-53223D01*
X76163Y-53225D01*
X76166Y-53229D01*
X76174Y-53244D01*
X76185Y-53268D01*
X76197Y-53297D01*
X76209Y-53326D01*
X76220Y-53354D01*
X76228Y-53375D01*
X76231Y-53386D01*
X76227Y-53394D01*
X76215Y-53412D01*
X76198Y-53438D01*
X76177Y-53469D01*
X76155Y-53500D01*
X76138Y-53527D01*
X76125Y-53546D01*
X76120Y-53554D01*
X76123Y-53560D01*
X76135Y-53575D01*
X76158Y-53599D01*
X76193Y-53634D01*
X76199Y-53639D01*
X76226Y-53666D01*
X76250Y-53687D01*
X76266Y-53702D01*
X76273Y-53707D01*
X76273Y-53707D01*
G37*
G54D16*
X73116Y-60761D02*
X73116Y-61047D01*
X73097Y-61104D01*
X73059Y-61142D01*
X73002Y-61161D01*
X72964Y-61161D01*
X73516Y-61161D02*
X73288Y-61161D01*
X73402Y-61161D02*
X73402Y-60761D01*
X73364Y-60819D01*
X73326Y-60857D01*
X73288Y-60876D01*
X72392Y-58261D02*
X72392Y-58585D01*
X72411Y-58623D01*
X72430Y-58642D01*
X72469Y-58661D01*
X72545Y-58661D01*
X72583Y-58642D01*
X72602Y-58623D01*
X72621Y-58585D01*
X72621Y-58261D01*
X72792Y-58642D02*
X72850Y-58661D01*
X72945Y-58661D01*
X72983Y-58642D01*
X73002Y-58623D01*
X73021Y-58585D01*
X73021Y-58547D01*
X73002Y-58509D01*
X72983Y-58490D01*
X72945Y-58471D01*
X72869Y-58452D01*
X72830Y-58433D01*
X72811Y-58414D01*
X72792Y-58376D01*
X72792Y-58338D01*
X72811Y-58300D01*
X72830Y-58280D01*
X72869Y-58261D01*
X72964Y-58261D01*
X73021Y-58280D01*
X73326Y-58452D02*
X73383Y-58471D01*
X73402Y-58490D01*
X73421Y-58528D01*
X73421Y-58585D01*
X73402Y-58623D01*
X73383Y-58642D01*
X73345Y-58661D01*
X73192Y-58661D01*
X73192Y-58261D01*
X73326Y-58261D01*
X73364Y-58280D01*
X73383Y-58300D01*
X73402Y-58338D01*
X73402Y-58376D01*
X73383Y-58414D01*
X73364Y-58433D01*
X73326Y-58452D01*
X73192Y-58452D01*
X73497Y-58700D02*
X73802Y-58700D01*
X74030Y-58452D02*
X74088Y-58471D01*
X74107Y-58490D01*
X74126Y-58528D01*
X74126Y-58585D01*
X74107Y-58623D01*
X74088Y-58642D01*
X74050Y-58661D01*
X73897Y-58661D01*
X73897Y-58261D01*
X74030Y-58261D01*
X74069Y-58280D01*
X74088Y-58300D01*
X74107Y-58338D01*
X74107Y-58376D01*
X74088Y-58414D01*
X74069Y-58433D01*
X74030Y-58452D01*
X73897Y-58452D01*
G54D17*
X73099Y-51682D02*
X73099Y-51842D01*
X73109Y-51860D01*
X73118Y-51870D01*
X73137Y-51879D01*
X73174Y-51879D01*
X73193Y-51870D01*
X73203Y-51860D01*
X73212Y-51842D01*
X73212Y-51682D01*
X73409Y-51879D02*
X73296Y-51879D01*
X73353Y-51879D02*
X73353Y-51682D01*
X73334Y-51710D01*
X73315Y-51729D01*
X73296Y-51739D01*
X72734Y-52330D02*
X72668Y-52330D01*
X72668Y-52433D02*
X72668Y-52236D01*
X72762Y-52236D01*
X72809Y-52236D02*
X72921Y-52236D01*
X72865Y-52433D02*
X72865Y-52236D01*
X72977Y-52255D02*
X72987Y-52246D01*
X73006Y-52236D01*
X73053Y-52236D01*
X73071Y-52246D01*
X73081Y-52255D01*
X73090Y-52274D01*
X73090Y-52293D01*
X73081Y-52321D01*
X72968Y-52433D01*
X73090Y-52433D01*
X73156Y-52236D02*
X73278Y-52236D01*
X73212Y-52311D01*
X73240Y-52311D01*
X73259Y-52321D01*
X73268Y-52330D01*
X73278Y-52349D01*
X73278Y-52396D01*
X73268Y-52414D01*
X73259Y-52424D01*
X73240Y-52433D01*
X73184Y-52433D01*
X73165Y-52424D01*
X73156Y-52414D01*
X73400Y-52236D02*
X73418Y-52236D01*
X73437Y-52246D01*
X73447Y-52255D01*
X73456Y-52274D01*
X73465Y-52311D01*
X73465Y-52358D01*
X73456Y-52396D01*
X73447Y-52414D01*
X73437Y-52424D01*
X73418Y-52433D01*
X73400Y-52433D01*
X73381Y-52424D01*
X73371Y-52414D01*
X73362Y-52396D01*
X73353Y-52358D01*
X73353Y-52311D01*
X73362Y-52274D01*
X73371Y-52255D01*
X73381Y-52246D01*
X73400Y-52236D01*
X73531Y-52236D02*
X73662Y-52433D01*
X73662Y-52236D02*
X73531Y-52433D01*
X73728Y-52424D02*
X73756Y-52433D01*
X73803Y-52433D01*
X73822Y-52424D01*
X73831Y-52414D01*
X73841Y-52396D01*
X73841Y-52377D01*
X73831Y-52358D01*
X73822Y-52349D01*
X73803Y-52339D01*
X73765Y-52330D01*
X73747Y-52321D01*
X73737Y-52311D01*
X73728Y-52293D01*
X73728Y-52274D01*
X73737Y-52255D01*
X73747Y-52246D01*
X73765Y-52236D01*
X73812Y-52236D01*
X73841Y-52246D01*
G54D11*
X77150Y-49371D02*
X77050Y-49228D01*
X76978Y-49371D02*
X76978Y-49071D01*
X77092Y-49071D01*
X77121Y-49085D01*
X77135Y-49100D01*
X77150Y-49128D01*
X77150Y-49171D01*
X77135Y-49200D01*
X77121Y-49214D01*
X77092Y-49228D01*
X76978Y-49228D01*
X77250Y-49071D02*
X77435Y-49071D01*
X77335Y-49185D01*
X77378Y-49185D01*
X77407Y-49200D01*
X77421Y-49214D01*
X77435Y-49242D01*
X77435Y-49314D01*
X77421Y-49342D01*
X77407Y-49357D01*
X77378Y-49371D01*
X77292Y-49371D01*
X77264Y-49357D01*
X77250Y-49342D01*
X78764Y-49371D02*
X78592Y-49371D01*
X78678Y-49371D02*
X78678Y-49071D01*
X78650Y-49114D01*
X78621Y-49142D01*
X78592Y-49157D01*
X78892Y-49371D02*
X78892Y-49071D01*
X78921Y-49257D02*
X79007Y-49371D01*
X79007Y-49171D02*
X78892Y-49285D01*
X64621Y-50000D02*
X64478Y-50100D01*
X64621Y-50171D02*
X64321Y-50171D01*
X64321Y-50057D01*
X64335Y-50028D01*
X64350Y-50014D01*
X64378Y-50000D01*
X64421Y-50000D01*
X64450Y-50014D01*
X64464Y-50028D01*
X64478Y-50057D01*
X64478Y-50171D01*
X64350Y-49885D02*
X64335Y-49871D01*
X64321Y-49842D01*
X64321Y-49771D01*
X64335Y-49742D01*
X64350Y-49728D01*
X64378Y-49714D01*
X64407Y-49714D01*
X64450Y-49728D01*
X64621Y-49900D01*
X64621Y-49714D01*
X64621Y-51585D02*
X64621Y-51757D01*
X64621Y-51671D02*
X64321Y-51671D01*
X64364Y-51699D01*
X64392Y-51728D01*
X64407Y-51757D01*
X64621Y-51457D02*
X64321Y-51457D01*
X64507Y-51428D02*
X64621Y-51342D01*
X64421Y-51342D02*
X64535Y-51457D01*
X82121Y-50000D02*
X81978Y-50100D01*
X82121Y-50171D02*
X81821Y-50171D01*
X81821Y-50057D01*
X81835Y-50028D01*
X81850Y-50014D01*
X81878Y-50000D01*
X81921Y-50000D01*
X81950Y-50014D01*
X81964Y-50028D01*
X81978Y-50057D01*
X81978Y-50171D01*
X82121Y-49714D02*
X82121Y-49885D01*
X82121Y-49800D02*
X81821Y-49800D01*
X81864Y-49828D01*
X81892Y-49857D01*
X81907Y-49885D01*
X81850Y-51921D02*
X81835Y-51907D01*
X81821Y-51878D01*
X81821Y-51807D01*
X81835Y-51778D01*
X81850Y-51764D01*
X81878Y-51750D01*
X81907Y-51750D01*
X81950Y-51764D01*
X82121Y-51935D01*
X82121Y-51750D01*
X81850Y-51635D02*
X81835Y-51621D01*
X81821Y-51592D01*
X81821Y-51521D01*
X81835Y-51492D01*
X81850Y-51478D01*
X81878Y-51464D01*
X81907Y-51464D01*
X81950Y-51478D01*
X82121Y-51650D01*
X82121Y-51464D01*
X81821Y-51278D02*
X81821Y-51250D01*
X81835Y-51221D01*
X81850Y-51207D01*
X81878Y-51192D01*
X81935Y-51178D01*
X82007Y-51178D01*
X82064Y-51192D01*
X82092Y-51207D01*
X82107Y-51221D01*
X82121Y-51250D01*
X82121Y-51278D01*
X82107Y-51307D01*
X82092Y-51321D01*
X82064Y-51335D01*
X82007Y-51350D01*
X81935Y-51350D01*
X81878Y-51335D01*
X81850Y-51321D01*
X81835Y-51307D01*
X81821Y-51278D01*
X69621Y-58350D02*
X69478Y-58450D01*
X69621Y-58521D02*
X69321Y-58521D01*
X69321Y-58407D01*
X69335Y-58378D01*
X69350Y-58364D01*
X69378Y-58350D01*
X69421Y-58350D01*
X69450Y-58364D01*
X69464Y-58378D01*
X69478Y-58407D01*
X69478Y-58521D01*
X69421Y-58092D02*
X69621Y-58092D01*
X69307Y-58164D02*
X69521Y-58235D01*
X69521Y-58050D01*
X69321Y-57092D02*
X69321Y-56907D01*
X69435Y-57007D01*
X69435Y-56964D01*
X69450Y-56935D01*
X69464Y-56921D01*
X69492Y-56907D01*
X69564Y-56907D01*
X69592Y-56921D01*
X69607Y-56935D01*
X69621Y-56964D01*
X69621Y-57050D01*
X69607Y-57078D01*
X69592Y-57092D01*
X69321Y-56807D02*
X69321Y-56621D01*
X69435Y-56721D01*
X69435Y-56678D01*
X69450Y-56650D01*
X69464Y-56635D01*
X69492Y-56621D01*
X69564Y-56621D01*
X69592Y-56635D01*
X69607Y-56650D01*
X69621Y-56678D01*
X69621Y-56764D01*
X69607Y-56792D01*
X69592Y-56807D01*
X69621Y-56321D02*
X69478Y-56421D01*
X69621Y-56492D02*
X69321Y-56492D01*
X69321Y-56378D01*
X69335Y-56350D01*
X69350Y-56335D01*
X69378Y-56321D01*
X69421Y-56321D01*
X69450Y-56335D01*
X69464Y-56350D01*
X69478Y-56378D01*
X69478Y-56492D01*
X68621Y-58350D02*
X68478Y-58450D01*
X68621Y-58521D02*
X68321Y-58521D01*
X68321Y-58407D01*
X68335Y-58378D01*
X68350Y-58364D01*
X68378Y-58350D01*
X68421Y-58350D01*
X68450Y-58364D01*
X68464Y-58378D01*
X68478Y-58407D01*
X68478Y-58521D01*
X68321Y-58078D02*
X68321Y-58221D01*
X68464Y-58235D01*
X68450Y-58221D01*
X68435Y-58192D01*
X68435Y-58121D01*
X68450Y-58092D01*
X68464Y-58078D01*
X68492Y-58064D01*
X68564Y-58064D01*
X68592Y-58078D01*
X68607Y-58092D01*
X68621Y-58121D01*
X68621Y-58192D01*
X68607Y-58221D01*
X68592Y-58235D01*
X68321Y-57092D02*
X68321Y-56907D01*
X68435Y-57007D01*
X68435Y-56964D01*
X68450Y-56935D01*
X68464Y-56921D01*
X68492Y-56907D01*
X68564Y-56907D01*
X68592Y-56921D01*
X68607Y-56935D01*
X68621Y-56964D01*
X68621Y-57050D01*
X68607Y-57078D01*
X68592Y-57092D01*
X68321Y-56807D02*
X68321Y-56621D01*
X68435Y-56721D01*
X68435Y-56678D01*
X68450Y-56650D01*
X68464Y-56635D01*
X68492Y-56621D01*
X68564Y-56621D01*
X68592Y-56635D01*
X68607Y-56650D01*
X68621Y-56678D01*
X68621Y-56764D01*
X68607Y-56792D01*
X68592Y-56807D01*
X68621Y-56321D02*
X68478Y-56421D01*
X68621Y-56492D02*
X68321Y-56492D01*
X68321Y-56378D01*
X68335Y-56350D01*
X68350Y-56335D01*
X68378Y-56321D01*
X68421Y-56321D01*
X68450Y-56335D01*
X68464Y-56350D01*
X68478Y-56378D01*
X68478Y-56492D01*
X81071Y-47221D02*
X80771Y-47221D01*
X80771Y-47150D01*
X80785Y-47107D01*
X80814Y-47078D01*
X80842Y-47064D01*
X80900Y-47050D01*
X80942Y-47050D01*
X81000Y-47064D01*
X81028Y-47078D01*
X81057Y-47107D01*
X81071Y-47150D01*
X81071Y-47221D01*
X81071Y-46764D02*
X81071Y-46935D01*
X81071Y-46850D02*
X80771Y-46850D01*
X80814Y-46878D01*
X80842Y-46907D01*
X80857Y-46935D01*
X77750Y-59364D02*
X77650Y-59364D01*
X77650Y-59521D02*
X77650Y-59221D01*
X77792Y-59221D01*
X78007Y-59364D02*
X78050Y-59378D01*
X78064Y-59392D01*
X78078Y-59421D01*
X78078Y-59464D01*
X78064Y-59492D01*
X78050Y-59507D01*
X78021Y-59521D01*
X77907Y-59521D01*
X77907Y-59221D01*
X78007Y-59221D01*
X78035Y-59235D01*
X78050Y-59250D01*
X78064Y-59278D01*
X78064Y-59307D01*
X78050Y-59335D01*
X78035Y-59350D01*
X78007Y-59364D01*
X77907Y-59364D01*
X78364Y-59521D02*
X78192Y-59521D01*
X78278Y-59521D02*
X78278Y-59221D01*
X78250Y-59264D01*
X78221Y-59292D01*
X78192Y-59307D01*
X77607Y-60114D02*
X77650Y-60128D01*
X77664Y-60142D01*
X77678Y-60171D01*
X77678Y-60214D01*
X77664Y-60242D01*
X77650Y-60257D01*
X77621Y-60271D01*
X77507Y-60271D01*
X77507Y-59971D01*
X77607Y-59971D01*
X77635Y-59985D01*
X77650Y-60000D01*
X77664Y-60028D01*
X77664Y-60057D01*
X77650Y-60085D01*
X77635Y-60100D01*
X77607Y-60114D01*
X77507Y-60114D01*
X77807Y-60114D02*
X77907Y-60114D01*
X77950Y-60271D02*
X77807Y-60271D01*
X77807Y-59971D01*
X77950Y-59971D01*
X78064Y-60185D02*
X78207Y-60185D01*
X78035Y-60271D02*
X78135Y-59971D01*
X78235Y-60271D01*
X78335Y-60271D02*
X78335Y-59971D01*
X78407Y-59971D01*
X78450Y-59985D01*
X78478Y-60014D01*
X78492Y-60042D01*
X78507Y-60100D01*
X78507Y-60142D01*
X78492Y-60200D01*
X78478Y-60228D01*
X78450Y-60257D01*
X78407Y-60271D01*
X78335Y-60271D01*
G54D14*
X77958Y-58477D02*
X77946Y-58489D01*
X77910Y-58501D01*
X77886Y-58501D01*
X77851Y-58489D01*
X77827Y-58465D01*
X77815Y-58441D01*
X77803Y-58394D01*
X77803Y-58358D01*
X77815Y-58310D01*
X77827Y-58286D01*
X77851Y-58263D01*
X77886Y-58251D01*
X77910Y-58251D01*
X77946Y-58263D01*
X77958Y-58275D01*
X78053Y-58275D02*
X78065Y-58263D01*
X78089Y-58251D01*
X78148Y-58251D01*
X78172Y-58263D01*
X78184Y-58275D01*
X78196Y-58298D01*
X78196Y-58322D01*
X78184Y-58358D01*
X78041Y-58501D01*
X78196Y-58501D01*
X77732Y-57251D02*
X77589Y-57251D01*
X77660Y-57251D02*
X77660Y-57001D01*
X77636Y-57036D01*
X77613Y-57060D01*
X77589Y-57072D01*
X77886Y-57001D02*
X77910Y-57001D01*
X77934Y-57013D01*
X77946Y-57025D01*
X77958Y-57048D01*
X77970Y-57096D01*
X77970Y-57155D01*
X77958Y-57203D01*
X77946Y-57227D01*
X77934Y-57239D01*
X77910Y-57251D01*
X77886Y-57251D01*
X77863Y-57239D01*
X77851Y-57227D01*
X77839Y-57203D01*
X77827Y-57155D01*
X77827Y-57096D01*
X77839Y-57048D01*
X77851Y-57025D01*
X77863Y-57013D01*
X77886Y-57001D01*
X78184Y-57084D02*
X78184Y-57251D01*
X78077Y-57084D02*
X78077Y-57215D01*
X78089Y-57239D01*
X78113Y-57251D01*
X78148Y-57251D01*
X78172Y-57239D01*
X78184Y-57227D01*
X78386Y-57120D02*
X78303Y-57120D01*
X78303Y-57251D02*
X78303Y-57001D01*
X78422Y-57001D01*
G54D11*
X78885Y-58507D02*
X79114Y-58507D01*
X79000Y-58621D02*
X79000Y-58392D01*
X72957Y-49121D02*
X72957Y-48821D01*
X73271Y-49092D02*
X73257Y-49107D01*
X73214Y-49121D01*
X73185Y-49121D01*
X73142Y-49107D01*
X73114Y-49078D01*
X73100Y-49050D01*
X73085Y-48992D01*
X73085Y-48950D01*
X73100Y-48892D01*
X73114Y-48864D01*
X73142Y-48835D01*
X73185Y-48821D01*
X73214Y-48821D01*
X73257Y-48835D01*
X73271Y-48850D01*
X73557Y-49121D02*
X73385Y-49121D01*
X73471Y-49121D02*
X73471Y-48821D01*
X73442Y-48864D01*
X73414Y-48892D01*
X73385Y-48907D01*
X73285Y-48528D02*
X73285Y-48385D01*
X73371Y-48557D02*
X73071Y-48457D01*
X73371Y-48357D01*
X73071Y-48300D02*
X73071Y-48128D01*
X73371Y-48214D02*
X73071Y-48214D01*
X73071Y-48071D02*
X73071Y-47900D01*
X73371Y-47985D02*
X73071Y-47985D01*
X73371Y-47800D02*
X73071Y-47800D01*
X73371Y-47657D02*
X73071Y-47657D01*
X73371Y-47485D01*
X73071Y-47485D01*
X73228Y-47285D02*
X73371Y-47285D01*
X73071Y-47385D02*
X73228Y-47285D01*
X73071Y-47185D01*
X73200Y-47042D02*
X73185Y-47071D01*
X73171Y-47085D01*
X73142Y-47100D01*
X73128Y-47100D01*
X73100Y-47085D01*
X73085Y-47071D01*
X73071Y-47042D01*
X73071Y-46985D01*
X73085Y-46957D01*
X73100Y-46942D01*
X73128Y-46928D01*
X73142Y-46928D01*
X73171Y-46942D01*
X73185Y-46957D01*
X73200Y-46985D01*
X73200Y-47042D01*
X73214Y-47071D01*
X73228Y-47085D01*
X73257Y-47100D01*
X73314Y-47100D01*
X73342Y-47085D01*
X73357Y-47071D01*
X73371Y-47042D01*
X73371Y-46985D01*
X73357Y-46957D01*
X73342Y-46942D01*
X73314Y-46928D01*
X73257Y-46928D01*
X73228Y-46942D01*
X73214Y-46957D01*
X73200Y-46985D01*
X73071Y-46657D02*
X73071Y-46800D01*
X73214Y-46814D01*
X73200Y-46800D01*
X73185Y-46771D01*
X73185Y-46700D01*
X73200Y-46671D01*
X73214Y-46657D01*
X73242Y-46642D01*
X73314Y-46642D01*
X73342Y-46657D01*
X73357Y-46671D01*
X73371Y-46700D01*
X73371Y-46771D01*
X73357Y-46800D01*
X73342Y-46814D01*
X73257Y-46514D02*
X73257Y-46285D01*
X73371Y-46142D02*
X73071Y-46142D01*
X73071Y-46028D01*
X73085Y-46000D01*
X73100Y-45985D01*
X73128Y-45971D01*
X73171Y-45971D01*
X73200Y-45985D01*
X73214Y-46000D01*
X73228Y-46028D01*
X73228Y-46142D01*
G54D14*
X70277Y-61991D02*
X70289Y-62003D01*
X70301Y-62039D01*
X70301Y-62063D01*
X70289Y-62098D01*
X70265Y-62122D01*
X70241Y-62134D01*
X70194Y-62146D01*
X70158Y-62146D01*
X70110Y-62134D01*
X70086Y-62122D01*
X70063Y-62098D01*
X70051Y-62063D01*
X70051Y-62039D01*
X70063Y-62003D01*
X70075Y-61991D01*
X70051Y-61908D02*
X70051Y-61741D01*
X70301Y-61848D01*
X70134Y-60841D02*
X70301Y-60841D01*
X70039Y-60901D02*
X70217Y-60960D01*
X70217Y-60805D01*
X70051Y-60734D02*
X70051Y-60567D01*
X70301Y-60675D01*
X70134Y-60472D02*
X70384Y-60472D01*
X70146Y-60472D02*
X70134Y-60448D01*
X70134Y-60401D01*
X70146Y-60377D01*
X70158Y-60365D01*
X70182Y-60353D01*
X70253Y-60353D01*
X70277Y-60365D01*
X70289Y-60377D01*
X70301Y-60401D01*
X70301Y-60448D01*
X70289Y-60472D01*
X70170Y-60163D02*
X70170Y-60246D01*
X70301Y-60246D02*
X70051Y-60246D01*
X70051Y-60127D01*
X67927Y-61991D02*
X67939Y-62003D01*
X67951Y-62039D01*
X67951Y-62063D01*
X67939Y-62098D01*
X67915Y-62122D01*
X67891Y-62134D01*
X67844Y-62146D01*
X67808Y-62146D01*
X67760Y-62134D01*
X67736Y-62122D01*
X67713Y-62098D01*
X67701Y-62063D01*
X67701Y-62039D01*
X67713Y-62003D01*
X67725Y-61991D01*
X67701Y-61777D02*
X67701Y-61825D01*
X67713Y-61848D01*
X67725Y-61860D01*
X67760Y-61884D01*
X67808Y-61896D01*
X67903Y-61896D01*
X67927Y-61884D01*
X67939Y-61872D01*
X67951Y-61848D01*
X67951Y-61801D01*
X67939Y-61777D01*
X67927Y-61765D01*
X67903Y-61753D01*
X67844Y-61753D01*
X67820Y-61765D01*
X67808Y-61777D01*
X67796Y-61801D01*
X67796Y-61848D01*
X67808Y-61872D01*
X67820Y-61884D01*
X67844Y-61896D01*
X67734Y-60841D02*
X67901Y-60841D01*
X67639Y-60901D02*
X67817Y-60960D01*
X67817Y-60805D01*
X67651Y-60734D02*
X67651Y-60567D01*
X67901Y-60675D01*
X67734Y-60472D02*
X67984Y-60472D01*
X67746Y-60472D02*
X67734Y-60448D01*
X67734Y-60401D01*
X67746Y-60377D01*
X67758Y-60365D01*
X67782Y-60353D01*
X67853Y-60353D01*
X67877Y-60365D01*
X67889Y-60377D01*
X67901Y-60401D01*
X67901Y-60448D01*
X67889Y-60472D01*
X67770Y-60163D02*
X67770Y-60246D01*
X67901Y-60246D02*
X67651Y-60246D01*
X67651Y-60127D01*
X71358Y-55277D02*
X71346Y-55289D01*
X71310Y-55301D01*
X71286Y-55301D01*
X71251Y-55289D01*
X71227Y-55265D01*
X71215Y-55241D01*
X71203Y-55194D01*
X71203Y-55158D01*
X71215Y-55110D01*
X71227Y-55086D01*
X71251Y-55063D01*
X71286Y-55051D01*
X71310Y-55051D01*
X71346Y-55063D01*
X71358Y-55075D01*
X71501Y-55158D02*
X71477Y-55146D01*
X71465Y-55134D01*
X71453Y-55110D01*
X71453Y-55098D01*
X71465Y-55075D01*
X71477Y-55063D01*
X71501Y-55051D01*
X71548Y-55051D01*
X71572Y-55063D01*
X71584Y-55075D01*
X71596Y-55098D01*
X71596Y-55110D01*
X71584Y-55134D01*
X71572Y-55146D01*
X71548Y-55158D01*
X71501Y-55158D01*
X71477Y-55170D01*
X71465Y-55182D01*
X71453Y-55205D01*
X71453Y-55253D01*
X71465Y-55277D01*
X71477Y-55289D01*
X71501Y-55301D01*
X71548Y-55301D01*
X71572Y-55289D01*
X71584Y-55277D01*
X71596Y-55253D01*
X71596Y-55205D01*
X71584Y-55182D01*
X71572Y-55170D01*
X71548Y-55158D01*
X72139Y-55051D02*
X72163Y-55051D01*
X72186Y-55063D01*
X72198Y-55075D01*
X72210Y-55098D01*
X72222Y-55146D01*
X72222Y-55205D01*
X72210Y-55253D01*
X72198Y-55277D01*
X72186Y-55289D01*
X72163Y-55301D01*
X72139Y-55301D01*
X72115Y-55289D01*
X72103Y-55277D01*
X72091Y-55253D01*
X72079Y-55205D01*
X72079Y-55146D01*
X72091Y-55098D01*
X72103Y-55075D01*
X72115Y-55063D01*
X72139Y-55051D01*
X72329Y-55277D02*
X72341Y-55289D01*
X72329Y-55301D01*
X72317Y-55289D01*
X72329Y-55277D01*
X72329Y-55301D01*
X72579Y-55301D02*
X72436Y-55301D01*
X72508Y-55301D02*
X72508Y-55051D01*
X72484Y-55086D01*
X72460Y-55110D01*
X72436Y-55122D01*
X72794Y-55134D02*
X72794Y-55301D01*
X72686Y-55134D02*
X72686Y-55265D01*
X72698Y-55289D01*
X72722Y-55301D01*
X72758Y-55301D01*
X72782Y-55289D01*
X72794Y-55277D01*
X72996Y-55170D02*
X72913Y-55170D01*
X72913Y-55301D02*
X72913Y-55051D01*
X73032Y-55051D01*
X63927Y-47191D02*
X63939Y-47203D01*
X63951Y-47239D01*
X63951Y-47263D01*
X63939Y-47298D01*
X63915Y-47322D01*
X63891Y-47334D01*
X63844Y-47346D01*
X63808Y-47346D01*
X63760Y-47334D01*
X63736Y-47322D01*
X63713Y-47298D01*
X63701Y-47263D01*
X63701Y-47239D01*
X63713Y-47203D01*
X63725Y-47191D01*
X63784Y-46977D02*
X63951Y-46977D01*
X63689Y-47036D02*
X63867Y-47096D01*
X63867Y-46941D01*
X65051Y-47560D02*
X65051Y-47536D01*
X65063Y-47513D01*
X65075Y-47501D01*
X65098Y-47489D01*
X65146Y-47477D01*
X65205Y-47477D01*
X65253Y-47489D01*
X65277Y-47501D01*
X65289Y-47513D01*
X65301Y-47536D01*
X65301Y-47560D01*
X65289Y-47584D01*
X65277Y-47596D01*
X65253Y-47608D01*
X65205Y-47620D01*
X65146Y-47620D01*
X65098Y-47608D01*
X65075Y-47596D01*
X65063Y-47584D01*
X65051Y-47560D01*
X65277Y-47370D02*
X65289Y-47358D01*
X65301Y-47370D01*
X65289Y-47382D01*
X65277Y-47370D01*
X65301Y-47370D01*
X65301Y-47120D02*
X65301Y-47263D01*
X65301Y-47191D02*
X65051Y-47191D01*
X65086Y-47215D01*
X65110Y-47239D01*
X65122Y-47263D01*
X65134Y-46905D02*
X65301Y-46905D01*
X65134Y-47013D02*
X65265Y-47013D01*
X65289Y-47001D01*
X65301Y-46977D01*
X65301Y-46941D01*
X65289Y-46917D01*
X65277Y-46905D01*
X65170Y-46703D02*
X65170Y-46786D01*
X65301Y-46786D02*
X65051Y-46786D01*
X65051Y-46667D01*
X75808Y-51027D02*
X75796Y-51039D01*
X75760Y-51051D01*
X75736Y-51051D01*
X75701Y-51039D01*
X75677Y-51015D01*
X75665Y-50991D01*
X75653Y-50944D01*
X75653Y-50908D01*
X75665Y-50860D01*
X75677Y-50836D01*
X75701Y-50813D01*
X75736Y-50801D01*
X75760Y-50801D01*
X75796Y-50813D01*
X75808Y-50825D01*
X76034Y-50801D02*
X75915Y-50801D01*
X75903Y-50920D01*
X75915Y-50908D01*
X75939Y-50896D01*
X75998Y-50896D01*
X76022Y-50908D01*
X76034Y-50920D01*
X76046Y-50944D01*
X76046Y-51003D01*
X76034Y-51027D01*
X76022Y-51039D01*
X75998Y-51051D01*
X75939Y-51051D01*
X75915Y-51039D01*
X75903Y-51027D01*
X76689Y-50801D02*
X76713Y-50801D01*
X76736Y-50813D01*
X76748Y-50825D01*
X76760Y-50848D01*
X76772Y-50896D01*
X76772Y-50955D01*
X76760Y-51003D01*
X76748Y-51027D01*
X76736Y-51039D01*
X76713Y-51051D01*
X76689Y-51051D01*
X76665Y-51039D01*
X76653Y-51027D01*
X76641Y-51003D01*
X76629Y-50955D01*
X76629Y-50896D01*
X76641Y-50848D01*
X76653Y-50825D01*
X76665Y-50813D01*
X76689Y-50801D01*
X76879Y-51027D02*
X76891Y-51039D01*
X76879Y-51051D01*
X76867Y-51039D01*
X76879Y-51027D01*
X76879Y-51051D01*
X77129Y-51051D02*
X76986Y-51051D01*
X77058Y-51051D02*
X77058Y-50801D01*
X77034Y-50836D01*
X77010Y-50860D01*
X76986Y-50872D01*
X77344Y-50884D02*
X77344Y-51051D01*
X77236Y-50884D02*
X77236Y-51015D01*
X77248Y-51039D01*
X77272Y-51051D01*
X77308Y-51051D01*
X77332Y-51039D01*
X77344Y-51027D01*
X77546Y-50920D02*
X77463Y-50920D01*
X77463Y-51051D02*
X77463Y-50801D01*
X77582Y-50801D01*
X77108Y-55127D02*
X77096Y-55139D01*
X77060Y-55151D01*
X77036Y-55151D01*
X77001Y-55139D01*
X76977Y-55115D01*
X76965Y-55091D01*
X76953Y-55044D01*
X76953Y-55008D01*
X76965Y-54960D01*
X76977Y-54936D01*
X77001Y-54913D01*
X77036Y-54901D01*
X77060Y-54901D01*
X77096Y-54913D01*
X77108Y-54925D01*
X77346Y-55151D02*
X77203Y-55151D01*
X77275Y-55151D02*
X77275Y-54901D01*
X77251Y-54936D01*
X77227Y-54960D01*
X77203Y-54972D01*
X78139Y-54901D02*
X78163Y-54901D01*
X78186Y-54913D01*
X78198Y-54925D01*
X78210Y-54948D01*
X78222Y-54996D01*
X78222Y-55055D01*
X78210Y-55103D01*
X78198Y-55127D01*
X78186Y-55139D01*
X78163Y-55151D01*
X78139Y-55151D01*
X78115Y-55139D01*
X78103Y-55127D01*
X78091Y-55103D01*
X78079Y-55055D01*
X78079Y-54996D01*
X78091Y-54948D01*
X78103Y-54925D01*
X78115Y-54913D01*
X78139Y-54901D01*
X78329Y-55127D02*
X78341Y-55139D01*
X78329Y-55151D01*
X78317Y-55139D01*
X78329Y-55127D01*
X78329Y-55151D01*
X78579Y-55151D02*
X78436Y-55151D01*
X78508Y-55151D02*
X78508Y-54901D01*
X78484Y-54936D01*
X78460Y-54960D01*
X78436Y-54972D01*
X78794Y-54984D02*
X78794Y-55151D01*
X78686Y-54984D02*
X78686Y-55115D01*
X78698Y-55139D01*
X78722Y-55151D01*
X78758Y-55151D01*
X78782Y-55139D01*
X78794Y-55127D01*
X78996Y-55020D02*
X78913Y-55020D01*
X78913Y-55151D02*
X78913Y-54901D01*
X79032Y-54901D01*
X77158Y-62277D02*
X77146Y-62289D01*
X77110Y-62301D01*
X77086Y-62301D01*
X77051Y-62289D01*
X77027Y-62265D01*
X77015Y-62241D01*
X77003Y-62194D01*
X77003Y-62158D01*
X77015Y-62110D01*
X77027Y-62086D01*
X77051Y-62063D01*
X77086Y-62051D01*
X77110Y-62051D01*
X77146Y-62063D01*
X77158Y-62075D01*
X77241Y-62051D02*
X77396Y-62051D01*
X77313Y-62146D01*
X77348Y-62146D01*
X77372Y-62158D01*
X77384Y-62170D01*
X77396Y-62194D01*
X77396Y-62253D01*
X77384Y-62277D01*
X77372Y-62289D01*
X77348Y-62301D01*
X77277Y-62301D01*
X77253Y-62289D01*
X77241Y-62277D01*
X78332Y-62301D02*
X78189Y-62301D01*
X78260Y-62301D02*
X78260Y-62051D01*
X78236Y-62086D01*
X78213Y-62110D01*
X78189Y-62122D01*
X78486Y-62051D02*
X78510Y-62051D01*
X78534Y-62063D01*
X78546Y-62075D01*
X78558Y-62098D01*
X78570Y-62146D01*
X78570Y-62205D01*
X78558Y-62253D01*
X78546Y-62277D01*
X78534Y-62289D01*
X78510Y-62301D01*
X78486Y-62301D01*
X78463Y-62289D01*
X78451Y-62277D01*
X78439Y-62253D01*
X78427Y-62205D01*
X78427Y-62146D01*
X78439Y-62098D01*
X78451Y-62075D01*
X78463Y-62063D01*
X78486Y-62051D01*
X78677Y-62134D02*
X78677Y-62301D01*
X78677Y-62158D02*
X78689Y-62146D01*
X78713Y-62134D01*
X78748Y-62134D01*
X78772Y-62146D01*
X78784Y-62170D01*
X78784Y-62301D01*
X78986Y-62170D02*
X78903Y-62170D01*
X78903Y-62301D02*
X78903Y-62051D01*
X79022Y-62051D01*
G54D18*
X66400Y-53404D02*
X66666Y-53404D01*
X66780Y-53823D02*
X66400Y-53823D01*
X66400Y-53023D01*
X66780Y-53023D01*
X67009Y-53023D02*
X67276Y-53823D01*
X67542Y-53023D01*
X67809Y-53404D02*
X68076Y-53404D01*
X68190Y-53823D02*
X67809Y-53823D01*
X67809Y-53023D01*
X68190Y-53023D01*
X68533Y-53823D02*
X68533Y-53023D01*
X68990Y-53823D01*
X68990Y-53023D01*
X69257Y-53023D02*
X69714Y-53023D01*
X69485Y-53823D02*
X69485Y-53023D01*
G54D16*
X77419Y-46561D02*
X77285Y-46371D01*
X77190Y-46561D02*
X77190Y-46161D01*
X77342Y-46161D01*
X77380Y-46180D01*
X77400Y-46200D01*
X77419Y-46238D01*
X77419Y-46295D01*
X77400Y-46333D01*
X77380Y-46352D01*
X77342Y-46371D01*
X77190Y-46371D01*
X77590Y-46352D02*
X77723Y-46352D01*
X77780Y-46561D02*
X77590Y-46561D01*
X77590Y-46161D01*
X77780Y-46161D01*
X77933Y-46542D02*
X77990Y-46561D01*
X78085Y-46561D01*
X78123Y-46542D01*
X78142Y-46523D01*
X78161Y-46485D01*
X78161Y-46447D01*
X78142Y-46409D01*
X78123Y-46390D01*
X78085Y-46371D01*
X78009Y-46352D01*
X77971Y-46333D01*
X77952Y-46314D01*
X77933Y-46276D01*
X77933Y-46238D01*
X77952Y-46200D01*
X77971Y-46180D01*
X78009Y-46161D01*
X78104Y-46161D01*
X78161Y-46180D01*
X78333Y-46352D02*
X78466Y-46352D01*
X78523Y-46561D02*
X78333Y-46561D01*
X78333Y-46161D01*
X78523Y-46161D01*
X78638Y-46161D02*
X78866Y-46161D01*
X78752Y-46561D02*
X78752Y-46161D01*
G54D14*
X73639Y-55277D02*
X73627Y-55289D01*
X73591Y-55301D01*
X73567Y-55301D01*
X73532Y-55289D01*
X73508Y-55265D01*
X73496Y-55241D01*
X73484Y-55194D01*
X73484Y-55158D01*
X73496Y-55110D01*
X73508Y-55086D01*
X73532Y-55063D01*
X73567Y-55051D01*
X73591Y-55051D01*
X73627Y-55063D01*
X73639Y-55075D01*
X73877Y-55301D02*
X73734Y-55301D01*
X73805Y-55301D02*
X73805Y-55051D01*
X73782Y-55086D01*
X73758Y-55110D01*
X73734Y-55122D01*
X74032Y-55051D02*
X74055Y-55051D01*
X74079Y-55063D01*
X74091Y-55075D01*
X74103Y-55098D01*
X74115Y-55146D01*
X74115Y-55205D01*
X74103Y-55253D01*
X74091Y-55277D01*
X74079Y-55289D01*
X74055Y-55301D01*
X74032Y-55301D01*
X74008Y-55289D01*
X73996Y-55277D01*
X73984Y-55253D01*
X73972Y-55205D01*
X73972Y-55146D01*
X73984Y-55098D01*
X73996Y-55075D01*
X74008Y-55063D01*
X74032Y-55051D01*
X74489Y-55051D02*
X74513Y-55051D01*
X74536Y-55063D01*
X74548Y-55075D01*
X74560Y-55098D01*
X74572Y-55146D01*
X74572Y-55205D01*
X74560Y-55253D01*
X74548Y-55277D01*
X74536Y-55289D01*
X74513Y-55301D01*
X74489Y-55301D01*
X74465Y-55289D01*
X74453Y-55277D01*
X74441Y-55253D01*
X74429Y-55205D01*
X74429Y-55146D01*
X74441Y-55098D01*
X74453Y-55075D01*
X74465Y-55063D01*
X74489Y-55051D01*
X74679Y-55277D02*
X74691Y-55289D01*
X74679Y-55301D01*
X74667Y-55289D01*
X74679Y-55277D01*
X74679Y-55301D01*
X74929Y-55301D02*
X74786Y-55301D01*
X74858Y-55301D02*
X74858Y-55051D01*
X74834Y-55086D01*
X74810Y-55110D01*
X74786Y-55122D01*
X75144Y-55134D02*
X75144Y-55301D01*
X75036Y-55134D02*
X75036Y-55265D01*
X75048Y-55289D01*
X75072Y-55301D01*
X75108Y-55301D01*
X75132Y-55289D01*
X75144Y-55277D01*
X75346Y-55170D02*
X75263Y-55170D01*
X75263Y-55301D02*
X75263Y-55051D01*
X75382Y-55051D01*
X70177Y-49491D02*
X70189Y-49503D01*
X70201Y-49539D01*
X70201Y-49563D01*
X70189Y-49598D01*
X70165Y-49622D01*
X70141Y-49634D01*
X70094Y-49646D01*
X70058Y-49646D01*
X70010Y-49634D01*
X69986Y-49622D01*
X69963Y-49598D01*
X69951Y-49563D01*
X69951Y-49539D01*
X69963Y-49503D01*
X69975Y-49491D01*
X70201Y-49372D02*
X70201Y-49325D01*
X70189Y-49301D01*
X70177Y-49289D01*
X70141Y-49265D01*
X70094Y-49253D01*
X69998Y-49253D01*
X69975Y-49265D01*
X69963Y-49277D01*
X69951Y-49301D01*
X69951Y-49348D01*
X69963Y-49372D01*
X69975Y-49384D01*
X69998Y-49396D01*
X70058Y-49396D01*
X70082Y-49384D01*
X70094Y-49372D01*
X70105Y-49348D01*
X70105Y-49301D01*
X70094Y-49277D01*
X70082Y-49265D01*
X70058Y-49253D01*
X69951Y-48510D02*
X69951Y-48486D01*
X69963Y-48463D01*
X69975Y-48451D01*
X69998Y-48439D01*
X70046Y-48427D01*
X70105Y-48427D01*
X70153Y-48439D01*
X70177Y-48451D01*
X70189Y-48463D01*
X70201Y-48486D01*
X70201Y-48510D01*
X70189Y-48534D01*
X70177Y-48546D01*
X70153Y-48558D01*
X70105Y-48570D01*
X70046Y-48570D01*
X69998Y-48558D01*
X69975Y-48546D01*
X69963Y-48534D01*
X69951Y-48510D01*
X70177Y-48320D02*
X70189Y-48308D01*
X70201Y-48320D01*
X70189Y-48332D01*
X70177Y-48320D01*
X70201Y-48320D01*
X70201Y-48070D02*
X70201Y-48213D01*
X70201Y-48141D02*
X69951Y-48141D01*
X69986Y-48165D01*
X70010Y-48189D01*
X70022Y-48213D01*
X70034Y-47855D02*
X70201Y-47855D01*
X70034Y-47963D02*
X70165Y-47963D01*
X70189Y-47951D01*
X70201Y-47927D01*
X70201Y-47891D01*
X70189Y-47867D01*
X70177Y-47855D01*
X70070Y-47653D02*
X70070Y-47736D01*
X70201Y-47736D02*
X69951Y-47736D01*
X69951Y-47617D01*
X69627Y-45710D02*
X69639Y-45722D01*
X69651Y-45758D01*
X69651Y-45782D01*
X69639Y-45817D01*
X69615Y-45841D01*
X69591Y-45853D01*
X69544Y-45865D01*
X69508Y-45865D01*
X69460Y-45853D01*
X69436Y-45841D01*
X69413Y-45817D01*
X69401Y-45782D01*
X69401Y-45758D01*
X69413Y-45722D01*
X69425Y-45710D01*
X69651Y-45472D02*
X69651Y-45615D01*
X69651Y-45544D02*
X69401Y-45544D01*
X69436Y-45567D01*
X69460Y-45591D01*
X69472Y-45615D01*
X69651Y-45234D02*
X69651Y-45377D01*
X69651Y-45305D02*
X69401Y-45305D01*
X69436Y-45329D01*
X69460Y-45353D01*
X69472Y-45377D01*
X69401Y-44760D02*
X69401Y-44736D01*
X69413Y-44713D01*
X69425Y-44701D01*
X69448Y-44689D01*
X69496Y-44677D01*
X69555Y-44677D01*
X69603Y-44689D01*
X69627Y-44701D01*
X69639Y-44713D01*
X69651Y-44736D01*
X69651Y-44760D01*
X69639Y-44784D01*
X69627Y-44796D01*
X69603Y-44808D01*
X69555Y-44820D01*
X69496Y-44820D01*
X69448Y-44808D01*
X69425Y-44796D01*
X69413Y-44784D01*
X69401Y-44760D01*
X69627Y-44570D02*
X69639Y-44558D01*
X69651Y-44570D01*
X69639Y-44582D01*
X69627Y-44570D01*
X69651Y-44570D01*
X69651Y-44320D02*
X69651Y-44463D01*
X69651Y-44391D02*
X69401Y-44391D01*
X69436Y-44415D01*
X69460Y-44439D01*
X69472Y-44463D01*
X69484Y-44105D02*
X69651Y-44105D01*
X69484Y-44213D02*
X69615Y-44213D01*
X69639Y-44201D01*
X69651Y-44177D01*
X69651Y-44141D01*
X69639Y-44117D01*
X69627Y-44105D01*
X69520Y-43903D02*
X69520Y-43986D01*
X69651Y-43986D02*
X69401Y-43986D01*
X69401Y-43867D01*
M02*
